# xmcd
#
# Track frame offsets: 
#        150
#        17750
#        36656
#        53416
#        74439
#        91111
#        108214
#        125718
#        143860
#        156966
#        174469
#        189556
#        211268
#        227262
#
# Disc length: 3102 seconds
#
# Revision: 2
# Processed by: cddbd v1.5.2PL0 Copyright (c) Steve Scherf et al.
# Submitted via: ExactAudioCopyFreeDBPlugin 1.0
#
DISCID=ba0c1c0e
DTITLE=STS - Neuer Morgen
DYEAR=2007
DGENRE=Austrop
TTITLE0=Dankschön
TTITLE1=Neuer Morgen
TTITLE2=Hundert Wege
TTITLE3=Goldene Zeiten
TTITLE4=Einfach
TTITLE5=Was wär gwesen wenn
TTITLE6=Cool und fesch
TTITLE7=Märchenschloss
TTITLE8=Unser letzter Tag
TTITLE9=Ende nie
TTITLE10=Küss mich
TTITLE11=Dagegen
TTITLE12=Du sollst lebn
TTITLE13=14
EXTD=YEAR: 2007
EXTT0=
EXTT1=
EXTT2=
EXTT3=
EXTT4=
EXTT5=
EXTT6=
EXTT7=
EXTT8=
EXTT9=
EXTT10=
EXTT11=
EXTT12=
EXTT13=
PLAYORDER=
